<svg xmlns="http://www.w3.org/2000/svg" xmlns:xlink="http://www.w3.org/1999/xlink" width="528" height="98" version="1.1" viewBox="0 0 528 98"><title>develop-timeline-master</title><desc>Created with Sketch.</desc><defs><rect id="path-1" width="10" height="10" x="77" y="21" rx="5"/><mask id="mask-2" width="10" height="10" x="0" y="0" fill="#fff" maskContentUnits="userSpaceOnUse" maskUnits="objectBoundingBox"><use xlink:href="#path-1"/></mask><rect id="path-3" width="10" height="10" x="53" y="21" rx="5"/><mask id="mask-4" width="10" height="10" x="0" y="0" fill="#fff" maskContentUnits="userSpaceOnUse" maskUnits="objectBoundingBox"><use xlink:href="#path-3"/></mask><rect id="path-5" width="10" height="10" x="29" y="21" rx="5"/><mask id="mask-6" width="10" height="10" x="0" y="0" fill="#fff" maskContentUnits="userSpaceOnUse" maskUnits="objectBoundingBox"><use xlink:href="#path-5"/></mask><rect id="path-7" width="12" height="12" x="96" y="0" rx="6"/><filter id="filter-8" width="200%" height="200%" x="-50%" y="-50%" filterUnits="objectBoundingBox"><feOffset dx="0" dy="1" in="SourceAlpha" result="shadowOffsetOuter1"/><feGaussianBlur in="shadowOffsetOuter1" result="shadowBlurOuter1" stdDeviation="1"/><feComposite in="shadowBlurOuter1" in2="SourceAlpha" operator="out" result="shadowBlurOuter1"/><feColorMatrix in="shadowBlurOuter1" type="matrix" values="0 0 0 0 0.757050303 0 0 0 0 0.809629048 0 0 0 0 0.870934311 0 0 0 1 0"/></filter><mask id="mask-9" width="12" height="12" x="0" y="0" fill="#fff" maskContentUnits="userSpaceOnUse" maskUnits="objectBoundingBox"><use xlink:href="#path-7"/></mask><rect id="path-10" width="10" height="10" x="77" y="21" rx="5"/><mask id="mask-11" width="10" height="10" x="0" y="0" fill="#fff" maskContentUnits="userSpaceOnUse" maskUnits="objectBoundingBox"><use xlink:href="#path-10"/></mask><rect id="path-12" width="10" height="10" x="53" y="21" rx="5"/><mask id="mask-13" width="10" height="10" x="0" y="0" fill="#fff" maskContentUnits="userSpaceOnUse" maskUnits="objectBoundingBox"><use xlink:href="#path-12"/></mask><rect id="path-14" width="10" height="10" x="29" y="21" rx="5"/><mask id="mask-15" width="10" height="10" x="0" y="0" fill="#fff" maskContentUnits="userSpaceOnUse" maskUnits="objectBoundingBox"><use xlink:href="#path-14"/></mask><rect id="path-16" width="12" height="12" x="96" y="0" rx="6"/><filter id="filter-17" width="200%" height="200%" x="-50%" y="-50%" filterUnits="objectBoundingBox"><feOffset dx="0" dy="1" in="SourceAlpha" result="shadowOffsetOuter1"/><feGaussianBlur in="shadowOffsetOuter1" result="shadowBlurOuter1" stdDeviation="1"/><feComposite in="shadowBlurOuter1" in2="SourceAlpha" operator="out" result="shadowBlurOuter1"/><feColorMatrix in="shadowBlurOuter1" type="matrix" values="0 0 0 0 0.757050303 0 0 0 0 0.809629048 0 0 0 0 0.870934311 0 0 0 1 0"/></filter><mask id="mask-18" width="12" height="12" x="0" y="0" fill="#fff" maskContentUnits="userSpaceOnUse" maskUnits="objectBoundingBox"><use xlink:href="#path-16"/></mask><rect id="path-19" width="10" height="10" x="77" y="21" rx="5"/><mask id="mask-20" width="10" height="10" x="0" y="0" fill="#fff" maskContentUnits="userSpaceOnUse" maskUnits="objectBoundingBox"><use xlink:href="#path-19"/></mask><rect id="path-21" width="10" height="10" x="53" y="21" rx="5"/><mask id="mask-22" width="10" height="10" x="0" y="0" fill="#fff" maskContentUnits="userSpaceOnUse" maskUnits="objectBoundingBox"><use xlink:href="#path-21"/></mask><rect id="path-23" width="10" height="10" x="29" y="21" rx="5"/><mask id="mask-24" width="10" height="10" x="0" y="0" fill="#fff" maskContentUnits="userSpaceOnUse" maskUnits="objectBoundingBox"><use xlink:href="#path-23"/></mask><rect id="path-25" width="12" height="12" x="96" y="0" rx="6"/><filter id="filter-26" width="200%" height="200%" x="-50%" y="-50%" filterUnits="objectBoundingBox"><feOffset dx="0" dy="1" in="SourceAlpha" result="shadowOffsetOuter1"/><feGaussianBlur in="shadowOffsetOuter1" result="shadowBlurOuter1" stdDeviation="1"/><feComposite in="shadowBlurOuter1" in2="SourceAlpha" operator="out" result="shadowBlurOuter1"/><feColorMatrix in="shadowBlurOuter1" type="matrix" values="0 0 0 0 0.757050303 0 0 0 0 0.809629048 0 0 0 0 0.870934311 0 0 0 1 0"/></filter><mask id="mask-27" width="12" height="12" x="0" y="0" fill="#fff" maskContentUnits="userSpaceOnUse" maskUnits="objectBoundingBox"><use xlink:href="#path-25"/></mask><rect id="path-28" width="12" height="12" x="354" y="3" rx="6"/><filter id="filter-29" width="200%" height="200%" x="-50%" y="-50%" filterUnits="objectBoundingBox"><feOffset dx="0" dy="1" in="SourceAlpha" result="shadowOffsetOuter1"/><feGaussianBlur in="shadowOffsetOuter1" result="shadowBlurOuter1" stdDeviation="1"/><feComposite in="shadowBlurOuter1" in2="SourceAlpha" operator="out" result="shadowBlurOuter1"/><feColorMatrix in="shadowBlurOuter1" type="matrix" values="0 0 0 0 0.757050303 0 0 0 0 0.809629048 0 0 0 0 0.870934311 0 0 0 1 0"/></filter><mask id="mask-30" width="12" height="12" x="0" y="0" fill="#fff" maskContentUnits="userSpaceOnUse" maskUnits="objectBoundingBox"><use xlink:href="#path-28"/></mask></defs><g id="Page-1" fill="none" fill-rule="evenodd" stroke="none" stroke-width="1"><g id="develop-timeline-master"><text id="develop" fill="#37393A" font-family="ClearSans-Bold, Clear Sans" font-size="12" font-weight="bold"><tspan x="1" y="54">develop</tspan></text><text id="master" fill="#37393A" font-family="ClearSans-Bold, Clear Sans" font-size="12" font-weight="bold"><tspan x="1" y="14">master</tspan></text><text id="feature/signup" fill="#A1B4D3" font-family="ClearSans-Italic, Clear Sans" font-size="10" font-style="italic" font-weight="normal"><tspan x="135" y="94">feature/signup</tspan></text><text id="fix/login" fill="#A1B4D3" font-family="ClearSans-Italic, Clear Sans" font-size="10" font-style="italic" font-weight="normal"><tspan x="258" y="94">fix/login</tspan></text><text id="feature/file_upload" fill="#A1B4D3" font-family="ClearSans-Italic, Clear Sans" font-size="10" font-style="italic" font-weight="normal"><tspan x="410" y="94">feature/file_upload</tspan></text><g id="Group" transform="translate(67.000000, 4.000000)"><path id="Path" stroke="#CBDAEC" stroke-width="2" d="M0.23828125,46.0075088 L458.253426,45.9924912"/><polyline id="Path-4" stroke="#CBDAEC" stroke-width="2" points="453.615 40.022 459.175 45.986 453.615 51.143"/><polyline id="Path-4" stroke="#10D368" stroke-width="2" points="453.615 .022 459.175 5.986 453.615 11.143"/><path id="Path-Copy" stroke="#10D368" stroke-width="2" d="M0.23828125,6.00750885 L458.253426,5.99249115"/><g id="Group-2" transform="translate(38.000000, 41.000000)"><path id="Path-2" stroke="#CBDAEC" d="M40.0262218,66.7337883 C40.0262218,66.7337883 40.9095959,59.4767921 51.3612019,59.3591034 C61.8128079,59.2414147 61.7337794,50.6357985 61.7337794,50.6357985 L61.7337794,-24.1770678 C61.7337794,-30.1688901 56.8687235,-35.0262218 50.8745523,-35.0262218 L50.2226843,-35.0262218" transform="translate(50.880005, 15.853783) rotate(-270.000000) translate(-50.880005, -15.853783)"/><use id="Rectangle-Copy-2" fill="#4990E2" stroke="#FFF" stroke-width="4" mask="url(#mask-2)" xlink:href="#path-1"/><use id="Rectangle-Copy-3" fill="#4990E2" stroke="#FFF" stroke-width="4" mask="url(#mask-4)" xlink:href="#path-3"/><use id="Rectangle-Copy-4" fill="#4990E2" stroke="#FFF" stroke-width="4" mask="url(#mask-6)" xlink:href="#path-5"/><g id="Rectangle-Copy"><use fill="#000" fill-opacity="1" filter="url(#filter-8)" xlink:href="#path-7"/><use fill="#4990E2" fill-rule="evenodd" stroke="#FFF" stroke-width="4" mask="url(#mask-9)" xlink:href="#path-7"/></g></g><g id="Group-2-Copy" transform="translate(160.000000, 41.000000)"><path id="Path-2" stroke="#CBDAEC" d="M40.0262218,66.7337883 C40.0262218,66.7337883 40.9095959,59.4767921 51.3612019,59.3591034 C61.8128079,59.2414147 61.7337794,50.6357985 61.7337794,50.6357985 L61.7337794,-24.1770678 C61.7337794,-30.1688901 56.8687235,-35.0262218 50.8745523,-35.0262218 L50.2226843,-35.0262218" transform="translate(50.880005, 15.853783) rotate(-270.000000) translate(-50.880005, -15.853783)"/><use id="Rectangle-Copy-2" fill="#4990E2" stroke="#FFF" stroke-width="4" mask="url(#mask-11)" xlink:href="#path-10"/><use id="Rectangle-Copy-3" fill="#4990E2" stroke="#FFF" stroke-width="4" mask="url(#mask-13)" xlink:href="#path-12"/><use id="Rectangle-Copy-4" fill="#4990E2" stroke="#FFF" stroke-width="4" mask="url(#mask-15)" xlink:href="#path-14"/><g id="Rectangle-Copy"><use fill="#000" fill-opacity="1" filter="url(#filter-17)" xlink:href="#path-16"/><use fill="#4990E2" fill-rule="evenodd" stroke="#FFF" stroke-width="4" mask="url(#mask-18)" xlink:href="#path-16"/></g></g><g id="Group-2-Copy-2" transform="translate(312.000000, 41.000000)"><path id="Path-2" stroke="#CBDAEC" d="M40.0262218,66.7337883 C40.0262218,66.7337883 40.9095959,59.4767921 51.3612019,59.3591034 C61.8128079,59.2414147 61.7337794,50.6357985 61.7337794,50.6357985 L61.7337794,-24.1770678 C61.7337794,-30.1688901 56.8687235,-35.0262218 50.8745523,-35.0262218 L50.2226843,-35.0262218" transform="translate(50.880005, 15.853783) rotate(-270.000000) translate(-50.880005, -15.853783)"/><use id="Rectangle-Copy-2" fill="#4990E2" stroke="#FFF" stroke-width="4" mask="url(#mask-20)" xlink:href="#path-19"/><use id="Rectangle-Copy-3" fill="#4990E2" stroke="#FFF" stroke-width="4" mask="url(#mask-22)" xlink:href="#path-21"/><use id="Rectangle-Copy-4" fill="#4990E2" stroke="#FFF" stroke-width="4" mask="url(#mask-24)" xlink:href="#path-23"/><g id="Rectangle-Copy"><use fill="#000" fill-opacity="1" filter="url(#filter-26)" xlink:href="#path-25"/><use fill="#4990E2" fill-rule="evenodd" stroke="#FFF" stroke-width="4" mask="url(#mask-27)" xlink:href="#path-25"/></g></g></g><g id="Rectangle-Copy"><use fill="#000" fill-opacity="1" filter="url(#filter-29)" xlink:href="#path-28"/><use fill="#10D368" fill-rule="evenodd" stroke="#FFF" stroke-width="4" mask="url(#mask-30)" xlink:href="#path-28"/></g><path id="Path-3" stroke="#10D368" d="M338.699399,46.7038817 C338.699399,46.7038817 346.849178,43.4388607 346.849178,28.2300332 C346.849178,13.0212057 353.352026,13.436165 353.352026,13.436165"/></g></g></svg>
