<svg xmlns="http://www.w3.org/2000/svg" xmlns:xlink="http://www.w3.org/1999/xlink" width="640" height="96" version="1.1" viewBox="0 0 640 96"><title>develop-timeline</title><desc>Created with Sketch.</desc><defs><rect id="path-1" width="19.104" height="19.104" x="0" y="0" rx="9.552"/><filter id="filter-2" width="200%" height="200%" x="-50%" y="-50%" filterUnits="objectBoundingBox"><feOffset dx="0" dy="2" in="SourceAlpha" result="shadowOffsetOuter1"/><feGaussianBlur in="shadowOffsetOuter1" result="shadowBlurOuter1" stdDeviation="1.5"/><feComposite in="shadowBlurOuter1" in2="SourceAlpha" operator="out" result="shadowBlurOuter1"/><feColorMatrix in="shadowBlurOuter1" type="matrix" values="0 0 0 0 0.757050303 0 0 0 0 0.809629048 0 0 0 0 0.870934311 0 0 0 1 0"/></filter><mask id="mask-3" width="19.104" height="19.104" x="0" y="0" fill="#fff" maskContentUnits="userSpaceOnUse" maskUnits="objectBoundingBox"><use xlink:href="#path-1"/></mask><rect id="path-4" width="19.104" height="19.104" x="0" y="0" rx="9.552"/><filter id="filter-5" width="200%" height="200%" x="-50%" y="-50%" filterUnits="objectBoundingBox"><feOffset dx="0" dy="2" in="SourceAlpha" result="shadowOffsetOuter1"/><feGaussianBlur in="shadowOffsetOuter1" result="shadowBlurOuter1" stdDeviation="1.5"/><feComposite in="shadowBlurOuter1" in2="SourceAlpha" operator="out" result="shadowBlurOuter1"/><feColorMatrix in="shadowBlurOuter1" type="matrix" values="0 0 0 0 0.757050303 0 0 0 0 0.809629048 0 0 0 0 0.870934311 0 0 0 1 0"/></filter><mask id="mask-6" width="19.104" height="19.104" x="0" y="0" fill="#fff" maskContentUnits="userSpaceOnUse" maskUnits="objectBoundingBox"><use xlink:href="#path-4"/></mask><rect id="path-7" width="19.104" height="19.104" x="0" y="0" rx="9.552"/><filter id="filter-8" width="200%" height="200%" x="-50%" y="-50%" filterUnits="objectBoundingBox"><feOffset dx="0" dy="2" in="SourceAlpha" result="shadowOffsetOuter1"/><feGaussianBlur in="shadowOffsetOuter1" result="shadowBlurOuter1" stdDeviation="1.5"/><feComposite in="shadowBlurOuter1" in2="SourceAlpha" operator="out" result="shadowBlurOuter1"/><feColorMatrix in="shadowBlurOuter1" type="matrix" values="0 0 0 0 0.757050303 0 0 0 0 0.809629048 0 0 0 0 0.870934311 0 0 0 1 0"/></filter><mask id="mask-9" width="19.104" height="19.104" x="0" y="0" fill="#fff" maskContentUnits="userSpaceOnUse" maskUnits="objectBoundingBox"><use xlink:href="#path-7"/></mask><rect id="path-10" width="10" height="10" x="1" y="21" rx="5"/><mask id="mask-11" width="10" height="10" x="0" y="0" fill="#fff" maskContentUnits="userSpaceOnUse" maskUnits="objectBoundingBox"><use xlink:href="#path-10"/></mask><rect id="path-12" width="10" height="10" x="1" y="21" rx="5"/><mask id="mask-13" width="10" height="10" x="0" y="0" fill="#fff" maskContentUnits="userSpaceOnUse" maskUnits="objectBoundingBox"><use xlink:href="#path-12"/></mask><rect id="path-14" width="10" height="10" x="1" y="21" rx="5"/><mask id="mask-15" width="10" height="10" x="0" y="0" fill="#fff" maskContentUnits="userSpaceOnUse" maskUnits="objectBoundingBox"><use xlink:href="#path-14"/></mask></defs><g id="Page-1" fill="none" fill-rule="evenodd" stroke="none" stroke-width="1"><g id="develop-timeline"><text id="develop" fill="#37393A" font-family="ClearSans-Bold, Clear Sans" font-size="19.104" font-weight="bold"><tspan x="3.184" y="24.184">develop</tspan></text><text id="feature/signup" fill="#A1B4D3" font-family="ClearSans-Italic, Clear Sans" font-size="15.92" font-style="italic" font-weight="normal"><tspan x="19.104" y="87.05">feature/signup</tspan></text><text id="fix/login" fill="#A1B4D3" font-family="ClearSans-Italic, Clear Sans" font-size="15.92" font-style="italic" font-weight="normal"><tspan x="232.438" y="88.642">fix/login</tspan></text><text id="feature/file_upload" fill="#A1B4D3" font-family="ClearSans-Italic, Clear Sans" font-size="15.92" font-style="italic" font-weight="normal"><tspan x="402.786" y="87.05">feature/file_upload</tspan></text><g id="Group" transform="translate(98.706468, 7.960199)"><path id="Path" stroke="#CBDAEC" stroke-width="3.184" d="M1.58992001,9.63833472 L536.517413,9.63833472"/><g id="Group-2" transform="translate(82.786070, 0.000000)"><g id="Rectangle-Copy"><use fill="#000" fill-opacity="1" filter="url(#filter-2)" xlink:href="#path-1"/><use fill="#4990E2" fill-rule="evenodd" stroke="#FFF" stroke-width="6.368" mask="url(#mask-3)" xlink:href="#path-1"/></g></g><g id="Group-2-Copy" transform="translate(249.950249, 0.000000)"><g id="Rectangle-Copy"><use fill="#000" fill-opacity="1" filter="url(#filter-5)" xlink:href="#path-4"/><use fill="#4990E2" fill-rule="evenodd" stroke="#FFF" stroke-width="6.368" mask="url(#mask-6)" xlink:href="#path-4"/></g></g><g id="Group-2-Copy-2" transform="translate(493.532338, 0.000000)"><g id="Rectangle-Copy"><use fill="#000" fill-opacity="1" filter="url(#filter-8)" xlink:href="#path-7"/><use fill="#4990E2" fill-rule="evenodd" stroke="#FFF" stroke-width="6.368" mask="url(#mask-9)" xlink:href="#path-7"/></g></g></g><g id="Arrow" stroke="#4990E2" transform="translate(135.323383, 42.985075)"><g stroke-width="1" transform="translate(10.000000, -1.000000)"><path id="Path-4" stroke-dasharray="2 1" d="M0.588222648,26.7414728 L15.7799545,26.7414728 C17.9889923,26.7414728 20.0578677,24.9775284 20.4025754,22.7910739 L23.7797712,1.36978085"/><polyline id="Path-5" points="19.961 4.992 23.74 1.212 27.335 4.807" transform="translate(23.648013, 3.101827) rotate(9.000000) translate(-23.648013, -3.101827)"/></g><use id="Rectangle-Copy" fill="#FFF" stroke-width="4" mask="url(#mask-11)" xlink:href="#path-10"/></g><g id="Arrow" stroke="#4990E2" transform="translate(302.487562, 42.985075)"><g stroke-width="1" transform="translate(10.000000, -1.000000)"><path id="Path-4" stroke-dasharray="2 1" d="M0.588222648,26.7414728 L15.7799545,26.7414728 C17.9889923,26.7414728 20.0578677,24.9775284 20.4025754,22.7910739 L23.7797712,1.36978085"/><polyline id="Path-5" points="19.961 4.992 23.74 1.212 27.335 4.807" transform="translate(23.648013, 3.101827) rotate(9.000000) translate(-23.648013, -3.101827)"/></g><use id="Rectangle-Copy" fill="#FFF" stroke-width="4" mask="url(#mask-13)" xlink:href="#path-12"/></g><g id="Arrow" stroke="#4990E2" transform="translate(547.661692, 42.985075)"><g stroke-width="1" transform="translate(10.000000, -1.000000)"><path id="Path-4" stroke-dasharray="2 1" d="M0.588222648,26.7414728 L15.7799545,26.7414728 C17.9889923,26.7414728 20.0578677,24.9775284 20.4025754,22.7910739 L23.7797712,1.36978085"/><polyline id="Path-5" points="19.961 4.992 23.74 1.212 27.335 4.807" transform="translate(23.648013, 3.101827) rotate(9.000000) translate(-23.648013, -3.101827)"/></g><use id="Rectangle-Copy" fill="#FFF" stroke-width="4" mask="url(#mask-15)" xlink:href="#path-14"/></g><polyline id="Path-4" stroke="#CBDAEC" stroke-width="3.184" points="628.856 7.96 637.708 17.455 628.856 25.664"/></g></g></svg>