<svg xmlns="http://www.w3.org/2000/svg" xmlns:xlink="http://www.w3.org/1999/xlink" width="327" height="242" version="1.1" viewBox="0 0 327 242"><title>merge-commits</title><desc>Created with Sketch.</desc><defs><rect id="path-1" width="12" height="12" x="0" y="0" rx="6"/><filter id="filter-2" width="200%" height="200%" x="-50%" y="-50%" filterUnits="objectBoundingBox"><feOffset dx="0" dy="1" in="SourceAlpha" result="shadowOffsetOuter1"/><feGaussianBlur in="shadowOffsetOuter1" result="shadowBlurOuter1" stdDeviation="1"/><feComposite in="shadowBlurOuter1" in2="SourceAlpha" operator="out" result="shadowBlurOuter1"/><feColorMatrix in="shadowBlurOuter1" type="matrix" values="0 0 0 0 0.757050303 0 0 0 0 0.809629048 0 0 0 0 0.870934311 0 0 0 1 0"/></filter><mask id="mask-3" width="12" height="12" x="0" y="0" fill="#fff" maskContentUnits="userSpaceOnUse" maskUnits="objectBoundingBox"><use xlink:href="#path-1"/></mask><rect id="path-4" width="10" height="10" x="45" y="21" rx="5"/><mask id="mask-5" width="10" height="10" x="0" y="0" fill="#fff" maskContentUnits="userSpaceOnUse" maskUnits="objectBoundingBox"><use xlink:href="#path-4"/></mask><rect id="path-6" width="10" height="10" x="23" y="21" rx="5"/><mask id="mask-7" width="10" height="10" x="0" y="0" fill="#fff" maskContentUnits="userSpaceOnUse" maskUnits="objectBoundingBox"><use xlink:href="#path-6"/></mask><rect id="path-8" width="12" height="12" x="68" y="0" rx="6"/><filter id="filter-9" width="200%" height="200%" x="-50%" y="-50%" filterUnits="objectBoundingBox"><feOffset dx="0" dy="1" in="SourceAlpha" result="shadowOffsetOuter1"/><feGaussianBlur in="shadowOffsetOuter1" result="shadowBlurOuter1" stdDeviation="1"/><feComposite in="shadowBlurOuter1" in2="SourceAlpha" operator="out" result="shadowBlurOuter1"/><feColorMatrix in="shadowBlurOuter1" type="matrix" values="0 0 0 0 0.757050303 0 0 0 0 0.809629048 0 0 0 0 0.870934311 0 0 0 1 0"/></filter><mask id="mask-10" width="12" height="12" x="0" y="0" fill="#fff" maskContentUnits="userSpaceOnUse" maskUnits="objectBoundingBox"><use xlink:href="#path-8"/></mask><rect id="path-11" width="10" height="10" x="45" y="21" rx="5"/><mask id="mask-12" width="10" height="10" x="0" y="0" fill="#fff" maskContentUnits="userSpaceOnUse" maskUnits="objectBoundingBox"><use xlink:href="#path-11"/></mask><rect id="path-13" width="10" height="10" x="23" y="21" rx="5"/><mask id="mask-14" width="10" height="10" x="0" y="0" fill="#fff" maskContentUnits="userSpaceOnUse" maskUnits="objectBoundingBox"><use xlink:href="#path-13"/></mask><rect id="path-15" width="12" height="12" x="68" y="0" rx="6"/><filter id="filter-16" width="200%" height="200%" x="-50%" y="-50%" filterUnits="objectBoundingBox"><feOffset dx="0" dy="1" in="SourceAlpha" result="shadowOffsetOuter1"/><feGaussianBlur in="shadowOffsetOuter1" result="shadowBlurOuter1" stdDeviation="1"/><feComposite in="shadowBlurOuter1" in2="SourceAlpha" operator="out" result="shadowBlurOuter1"/><feColorMatrix in="shadowBlurOuter1" type="matrix" values="0 0 0 0 0.757050303 0 0 0 0 0.809629048 0 0 0 0 0.870934311 0 0 0 1 0"/></filter><mask id="mask-17" width="12" height="12" x="0" y="0" fill="#fff" maskContentUnits="userSpaceOnUse" maskUnits="objectBoundingBox"><use xlink:href="#path-15"/></mask><linearGradient id="linearGradient-18" x1="50%" x2="50%" y1="0%" y2="100%"><stop offset="31.884%" stop-color="#FFF"/><stop offset="100%" stop-color="#FFF" stop-opacity="0"/></linearGradient></defs><g id="Page-1" fill="none" fill-rule="evenodd" stroke="none" stroke-width="1"><g id="merge-commits"><g id="Group" transform="translate(27.000000, 84.000000) rotate(-90.000000) translate(-27.000000, -84.000000) translate(-120.000000, 68.000000)"><path id="Path" stroke="#CBDAEC" stroke-width="2" d="M7.6495152,6.054079 L269.017844,6.054079"/><g id="Rectangle"><use fill="#000" fill-opacity="1" filter="url(#filter-2)" xlink:href="#path-1"/><use fill="#4990E2" fill-rule="evenodd" stroke="#FFF" stroke-width="4" mask="url(#mask-3)" xlink:href="#path-1"/></g><g id="Group-2" transform="translate(25.000000, 1.000000)"><path id="Path-2" stroke="#CBDAEC" d="M26.0262218,52.7337883 C26.0262218,52.7337883 26.9095959,45.4767921 37.3612019,45.3591034 C47.8128079,45.2414147 47.7337794,36.6357985 47.7337794,36.6357985 L47.7337794,17.8047883 L47.7337794,-10.170901 C47.7337794,-16.1661292 42.8687235,-21.0262218 36.8745523,-21.0262218 L36.2226843,-21.0262218" transform="translate(36.880005, 15.853783) rotate(-270.000000) translate(-36.880005, -15.853783)"/><use id="Rectangle-Copy-3" fill="#4990E2" stroke="#FFF" stroke-width="4" mask="url(#mask-5)" xlink:href="#path-4"/><use id="Rectangle-Copy-4" fill="#4990E2" stroke="#FFF" stroke-width="4" mask="url(#mask-7)" xlink:href="#path-6"/><g id="Rectangle-Copy"><use fill="#000" fill-opacity="1" filter="url(#filter-9)" xlink:href="#path-8"/><use fill="#4990E2" fill-rule="evenodd" stroke="#FFF" stroke-width="4" mask="url(#mask-10)" xlink:href="#path-8"/></g></g><g id="Group-2-Copy" transform="translate(114.000000, 1.000000)"><path id="Path-2" stroke="#CBDAEC" d="M26.0262218,52.7337883 C26.0262218,52.7337883 26.9095959,45.4767921 37.3612019,45.3591034 C47.8128079,45.2414147 47.7337794,36.6357985 47.7337794,36.6357985 L47.7337794,17.8047883 L47.7337794,-10.170901 C47.7337794,-16.1661292 42.8687235,-21.0262218 36.8745523,-21.0262218 L36.2226843,-21.0262218" transform="translate(36.880005, 15.853783) rotate(-270.000000) translate(-36.880005, -15.853783)"/><use id="Rectangle-Copy-3" fill="#4990E2" stroke="#FFF" stroke-width="4" mask="url(#mask-12)" xlink:href="#path-11"/><use id="Rectangle-Copy-4" fill="#4990E2" stroke="#FFF" stroke-width="4" mask="url(#mask-14)" xlink:href="#path-13"/><g id="Rectangle-Copy"><use fill="#000" fill-opacity="1" filter="url(#filter-16)" xlink:href="#path-15"/><use fill="#4990E2" fill-rule="evenodd" stroke="#FFF" stroke-width="4" mask="url(#mask-17)" xlink:href="#path-15"/></g></g><g id="Group-2-Copy-2" stroke="#CBDAEC" transform="translate(214.000000, 1.000000)"><path id="Path-2" d="M26.0262218,52.7337883 C26.0262218,52.7337883 26.9095959,45.4767921 37.3612019,45.3591034 C47.8128079,45.2414147 47.7337794,36.6357985 47.7337794,36.6357985 L47.7337794,17.8047883 L47.7337794,-10.170901 C47.7337794,-16.1661292 42.8687235,-21.0262218 36.8745523,-21.0262218 L36.2226843,-21.0262218" transform="translate(36.880005, 15.853783) rotate(-270.000000) translate(-36.880005, -15.853783)"/></g></g><text id="Merge-pull-request-#" fill="#A1B4D3" font-family="ClearSans-Bold, Clear Sans" font-size="10" font-weight="bold"><tspan x="62" y="134">Merge pull request #290 from origin/feature/signup</tspan></text><text id="Merge-pull-request-#" fill="#A1B4D3" font-family="ClearSans-Bold, Clear Sans" font-size="10" font-weight="bold"><tspan x="63" y="227">Merge pull request #289 from origin/feature/ratings</tspan></text><text id="Merge-pull-request-#" fill="#A1B4D3" font-family="ClearSans-Bold, Clear Sans" font-size="10" font-weight="bold"><tspan x="62" y="46">Merge pull request #291 from origin/fix/login</tspan></text><text id="Fix-login-via-Facebo" fill="#A1B4D3" font-family="ClearSans, Clear Sans" font-size="10" font-weight="normal" line-spacing="22"><tspan x="77" y="66">Fix login via Facebook</tspan> <tspan x="77" y="88">Fix login via Twitter</tspan></text><text id="Style-the-signup-for" fill="#A1B4D3" font-family="ClearSans, Clear Sans" font-size="10" font-weight="normal" line-spacing="22"><tspan x="77" y="155">Style the signup form</tspan> <tspan x="77" y="177">Allow signup via email</tspan></text><rect id="Rectangle-2" width="54" height="44" x="0" y="-19" fill="url(#linearGradient-18)"/></g></g></svg>
